<svg xmlns="http://www.w3.org/2000/svg" width="202" height="97.742" viewBox="0 0 202 97.742"><g id="Grupo_9169" data-name="Grupo 9169" transform="translate(7143 -9590.168)"><path id="Trazado_13127" data-name="Trazado 13127" d="M50.879,27.208H48.731a9.27,9.27,0,0,0-4.538.962,4.448,4.448,0,0,0-1.961,2.2q-.525,1.1-.523,5.775v40.57q0,4.771.55,5.959a4.8,4.8,0,0,0,2.15,2.085,8.872,8.872,0,0,0,4.323.892h2.148v1.7H17.009v-1.7h2.148a9.274,9.274,0,0,0,4.538-.96,4.241,4.241,0,0,0,1.914-2.2q.52-1.1.522-5.776V36.146c0-3.18-.176-5.162-.522-5.958A4.67,4.67,0,0,0,23.482,28.1a8.888,8.888,0,0,0-4.324-.894H17.009V25.513h33.87Z" transform="translate(-7140.685 9594.043)" fill="#fff"></path><path id="Trazado_13006" data-name="Trazado 13006" d="M45.613,0H13.033A13.033,13.033,0,0,0,0,13.033V84.709A13.033,13.033,0,0,0,13.033,97.742h32.58A13.032,13.032,0,0,0,58.645,84.709V13.033A13.032,13.032,0,0,0,45.613,0M52.13,31.02H50.063a8.628,8.628,0,0,0-4.365.963,4.4,4.4,0,0,0-1.886,2.2q-.505,1.1-.5,5.781V80.581q0,4.776.529,5.965A4.713,4.713,0,0,0,45.9,88.633a8.255,8.255,0,0,0,4.158.893H52.13v1.7H19.55v-1.7h2.067a8.631,8.631,0,0,0,4.365-.961,4.2,4.2,0,0,0,1.841-2.2q.5-1.1.5-5.782V39.968c0-3.184-.169-5.168-.5-5.964a4.587,4.587,0,0,0-2.047-2.088,8.27,8.27,0,0,0-4.16-.9H19.55v-1.7H52.13Z" transform="translate(-7143 9590.168)" fill="#00963e"></path><g id="Grupo_9168" data-name="Grupo 9168"><path id="Trazado_13007" data-name="Trazado 13007" d="M172.823,73.851c-2.821-.6-3.478-1.267-3.478-2.458v-.037c0-1.139,1.062-2.042,2.726-2.042a5.672,5.672,0,0,1,3.7,1.375l.842-1.1a6.741,6.741,0,0,0-4.5-1.553c-2.438,0-4.212,1.465-4.212,3.453v.037c0,2.079,1.353,3.018,4.3,3.649,2.692.563,3.334,1.229,3.334,2.4v.037c0,1.246-1.137,2.152-2.86,2.152a6.159,6.159,0,0,1-4.394-1.79l-.9,1.048a7.55,7.55,0,0,0,5.235,2.025c2.546,0,4.378-1.41,4.378-3.58v-.037c0-1.934-1.317-2.963-4.174-3.578" transform="translate(-7117.999 9600.329)" fill="#727271"></path><path id="Trazado_13008" data-name="Trazado 13008" d="M159.052,75.111h7v-1.3h-7V69.489h7.82v-1.3h-9.265V80.841h9.358v-1.3h-7.913Z" transform="translate(-7119.459 9600.353)" fill="#727271"></path><path id="Trazado_13009" data-name="Trazado 13009" d="M149.355,68.188h-1.447V80.841h8.664V79.523h-7.217Z" transform="translate(-7120.908 9600.353)" fill="#727271"></path><path id="Trazado_13010" data-name="Trazado 13010" d="M140.375,68.109l-5.843,12.744h1.484l1.521-3.344h6.978l1.5,3.344h1.555l-5.843-12.744ZM138.1,76.227l2.929-6.453,2.912,6.453Z" transform="translate(-7122.905 9600.341)" fill="#727271"></path><rect id="Rect&#xE1;ngulo_3071" data-name="Rect&#xE1;ngulo 3071" width="1.445" height="12.653" transform="translate(-6992.289 9668.54)" fill="#727271"></rect><path id="Trazado_13011" data-name="Trazado 13011" d="M129.8,71.984v-.036a3.469,3.469,0,0,0-.988-2.493,5.093,5.093,0,0,0-3.643-1.268h-5.514V80.841H121.1V75.926h3.665l3.718,4.916h1.773l-3.937-5.17c2.016-.36,3.481-1.59,3.481-3.687m-8.7,2.656V69.507h3.96c2.069,0,3.277.941,3.277,2.5v.036c0,1.628-1.374,2.6-3.3,2.6Z" transform="translate(-7125.127 9600.353)" fill="#727271"></path><path id="Trazado_13012" data-name="Trazado 13012" d="M108.7,69.507h4.3V80.841h1.462V69.507h4.3V68.188H108.7Z" transform="translate(-7126.763 9600.353)" fill="#727271"></path><path id="Trazado_13013" data-name="Trazado 13013" d="M104.412,73.851c-2.821-.6-3.479-1.267-3.479-2.458v-.037c0-1.139,1.062-2.042,2.729-2.042a5.669,5.669,0,0,1,3.7,1.375l.844-1.1a6.748,6.748,0,0,0-4.5-1.553c-2.436,0-4.212,1.465-4.212,3.453v.037c0,2.079,1.355,3.018,4.3,3.649,2.693.563,3.334,1.229,3.334,2.4v.037c0,1.246-1.133,2.152-2.857,2.152a6.151,6.151,0,0,1-4.394-1.79l-.9,1.048a7.556,7.556,0,0,0,5.238,2.025c2.546,0,4.376-1.41,4.376-3.58v-.037c0-1.934-1.316-2.963-4.173-3.578" transform="translate(-7128.217 9600.329)" fill="#727271"></path><path id="Trazado_13014" data-name="Trazado 13014" d="M96.831,75.545c0,2.765-1.5,4.173-3.861,4.173-2.456,0-3.922-1.536-3.922-4.264V68.187H87.6v7.358c0,3.58,2.161,5.5,5.332,5.5,3.2,0,5.345-1.915,5.345-5.6v-7.25H96.831Z" transform="translate(-7129.915 9600.353)" fill="#727271"></path><path id="Trazado_13015" data-name="Trazado 13015" d="M79.935,68.188H75.483V80.841h4.451c4.029,0,6.811-2.763,6.811-6.326V74.48c0-3.56-2.783-6.292-6.811-6.292m5.312,6.364c0,2.8-2.07,4.971-5.312,4.971h-3V69.507h3a4.962,4.962,0,0,1,5.312,5.008Z" transform="translate(-7131.726 9600.353)" fill="#727271"></path><path id="Trazado_13016" data-name="Trazado 13016" d="M72.629,78.327l-8.073-10.14H63.2V80.841h1.41V70.465l8.279,10.376h1.152V68.188h-1.41Z" transform="translate(-7133.56 9600.353)" fill="#727271"></path><rect id="Rect&#xE1;ngulo_3072" data-name="Rect&#xE1;ngulo 3072" width="1.447" height="12.653" transform="translate(-7074.581 9668.54)" fill="#727271"></rect><path id="Trazado_13017" data-name="Trazado 13017" d="M172.826,56.85c-2.818-.594-3.477-1.26-3.477-2.447v-.036c0-1.134,1.062-2.034,2.725-2.034a5.671,5.671,0,0,1,3.7,1.368l.842-1.1a6.748,6.748,0,0,0-4.5-1.547c-2.434,0-4.208,1.457-4.208,3.438v.037c0,2.07,1.352,3.007,4.3,3.637,2.692.556,3.332,1.223,3.332,2.394V60.6c0,1.242-1.132,2.141-2.855,2.141a6.137,6.137,0,0,1-4.389-1.782l-.9,1.045a7.557,7.557,0,0,0,5.23,2.017c2.544,0,4.374-1.406,4.374-3.566v-.033c0-1.929-1.317-2.957-4.171-3.568" transform="translate(-7117.997 9597.794)" fill="#727271"></path><path id="Trazado_13018" data-name="Trazado 13018" d="M165.181,57.541V57.5a6.531,6.531,0,0,0-13.061.037v.036a6.531,6.531,0,0,0,13.061-.036m-11.56,0V57.5a4.985,4.985,0,0,1,5.011-5.166,5.047,5.047,0,0,1,5.051,5.2v.036a4.987,4.987,0,0,1-5.014,5.165,5.047,5.047,0,0,1-5.049-5.2" transform="translate(-7120.278 9597.789)" fill="#727271"></path><path id="Trazado_13019" data-name="Trazado 13019" d="M145.963,63.813V52.526h4.3V51.213H140.2v1.314h4.3V63.813Z" transform="translate(-7122.059 9597.817)" fill="#727271"></path><path id="Trazado_13020" data-name="Trazado 13020" d="M132.585,52.338a5.609,5.609,0,0,1,4.023,1.728l.988-1.044a6.718,6.718,0,0,0-5-2,6.4,6.4,0,0,0-6.477,6.518v.036a6.333,6.333,0,0,0,6.42,6.479,6.73,6.73,0,0,0,5.126-2.213l-.953-.921a5.6,5.6,0,0,1-4.133,1.819,5.008,5.008,0,0,1-4.96-5.2V57.5a4.977,4.977,0,0,1,4.96-5.166" transform="translate(-7124.161 9597.789)" fill="#727271"></path><path id="Trazado_13021" data-name="Trazado 13021" d="M123.147,52.507V51.213h-9.256v12.6h9.347v-1.3h-7.9v-4.41h6.989v-1.3h-6.989v-4.3Z" transform="translate(-7125.988 9597.817)" fill="#727271"></path><path id="Trazado_13022" data-name="Trazado 13022" d="M106.072,63.813V58.807l5.325-7.6h-1.685l-4.35,6.3-4.319-6.3H99.286l5.325,7.615v4.986Z" transform="translate(-7128.17 9597.817)" fill="#727271"></path><path id="Trazado_13023" data-name="Trazado 13023" d="M98.364,57.541V57.5a6.531,6.531,0,0,0-13.063.037v.036a6.531,6.531,0,0,0,13.063-.036m-11.564,0V57.5a4.988,4.988,0,0,1,5.014-5.166,5.045,5.045,0,0,1,5.049,5.2v.036a4.986,4.986,0,0,1-5.012,5.165,5.047,5.047,0,0,1-5.05-5.2" transform="translate(-7130.259 9597.789)" fill="#727271"></path><path id="Trazado_13024" data-name="Trazado 13024" d="M81.041,63.814h1.775l-3.934-5.148c2.015-.36,3.477-1.585,3.477-3.673v-.036a3.453,3.453,0,0,0-.988-2.485,5.1,5.1,0,0,0-3.639-1.259H72.222v12.6h1.446v-4.9h3.66ZM73.668,52.527h3.953c2.067,0,3.276.936,3.276,2.484v.036c0,1.619-1.372,2.592-3.294,2.592H73.668Z" transform="translate(-7132.212 9597.817)" fill="#727271"></path><path id="Trazado_13025" data-name="Trazado 13025" d="M60.974,59.367h3.108c2.727,0,5.032-1.4,5.032-4.123v-.037c0-2.483-1.9-3.994-4.793-3.994H59.528v12.6h1.446Zm0-6.84h3.237c2.067,0,3.439.936,3.439,2.734V55.3c0,1.656-1.391,2.772-3.514,2.772H60.974Z" transform="translate(-7134.108 9597.817)" fill="#727271"></path></g><g id="Grupo_9167" data-name="Grupo 9167"><path id="Trazado_13026" data-name="Trazado 13026" d="M154.878,35.835h-.121a4.188,4.188,0,0,1-2.41-.551,2.487,2.487,0,0,1-.979-1.413,14.9,14.9,0,0,1-.089-2.213v-16.8l9.365,21.813.031.072h.6l9.254-22.038V32.4a7.09,7.09,0,0,1-.189,2.245,1.675,1.675,0,0,1-.68.818,3.341,3.341,0,0,1-1.682.367h-.922v.914h13.109v-.914h-.916a3.2,3.2,0,0,1-1.6-.339,1.73,1.73,0,0,1-.77-.77,7.645,7.645,0,0,1-.19-2.321V16.136a6.891,6.891,0,0,1,.188-2.225,1.676,1.676,0,0,1,.678-.8,3.366,3.366,0,0,1,1.69-.365h.916V11.83H169.927l-6.611,16.08L156.5,11.9l-.03-.072H146.2v.914h.9a3.233,3.233,0,0,1,1.594.338,1.7,1.7,0,0,1,.765.763,7.792,7.792,0,0,1,.193,2.291V31.75c0,1.473-.024,1.775-.035,1.83a3.347,3.347,0,0,1-.542,1.283,2.31,2.31,0,0,1-1.019.716,3.721,3.721,0,0,1-1.387.257H146.2v.914h8.674Z" transform="translate(-7121.162 9591.935)" fill="#00963e"></path><path id="Trazado_13027" data-name="Trazado 13027" d="M121.556,13.02a1.66,1.66,0,0,1,.764.772,8.619,8.619,0,0,1,.225,2.6V28.474a10.509,10.509,0,0,0,1,4.954,7.415,7.415,0,0,0,3.416,3.034,11.643,11.643,0,0,0,5,.868,10.224,10.224,0,0,0,6.124-1.644,7.142,7.142,0,0,0,2.834-3.61,24.694,24.694,0,0,0,.577-6.313V16.391a6.255,6.255,0,0,1,.229-2.052,2.27,2.27,0,0,1,.948-1.194,3.182,3.182,0,0,1,1.665-.4h.63V11.83H136.2v.913h.12a5.063,5.063,0,0,1,2.25.406,1.95,1.95,0,0,1,.822.93,5.729,5.729,0,0,1,.332,2.313V26.455a15.114,15.114,0,0,1-.688,5.465,5.42,5.42,0,0,1-2.067,2.431,6.083,6.083,0,0,1-3.342.882,5.3,5.3,0,0,1-2.825-.692,4.032,4.032,0,0,1-1.6-1.731,12.232,12.232,0,0,1-.492-4.335V16.391a8.866,8.866,0,0,1,.22-2.593,1.6,1.6,0,0,1,.713-.77,4.378,4.378,0,0,1,1.915-.285h.753V11.83H119.347v.915l.286,0a4.6,4.6,0,0,1,1.923.278" transform="translate(-7125.173 9591.935)" fill="#00963e"></path><path id="Trazado_13028" data-name="Trazado 13028" d="M100.251,37.314a2.447,2.447,0,0,1,.813-1.06,1.674,1.674,0,0,1,.933-.343,3.819,3.819,0,0,1,1.391.354,16.6,16.6,0,0,0,2.618.9,10.039,10.039,0,0,0,2.226.239,8.809,8.809,0,0,0,6.2-2.261,7.159,7.159,0,0,0,2.447-5.412,6.975,6.975,0,0,0-1.516-4.406c-1.015-1.271-2.993-2.635-5.878-4.055a37.765,37.765,0,0,1-3.924-2.119,6,6,0,0,1-1.66-1.657,2.668,2.668,0,0,1-.364-1.393,2.916,2.916,0,0,1,1.041-2.2,4.087,4.087,0,0,1,2.855-.961,6.411,6.411,0,0,1,4.38,1.853,8.348,8.348,0,0,1,2.556,4.909l.017.1h.967l-.2-8.466h-.757l-.021.094a3.148,3.148,0,0,1-.48,1.345.854.854,0,0,1-.657.253,4.854,4.854,0,0,1-1.667-.579,11.92,11.92,0,0,0-2.1-.818,9.431,9.431,0,0,0-2.355-.294,7.725,7.725,0,0,0-5.538,2.107,6.853,6.853,0,0,0-2.2,5.111,6.608,6.608,0,0,0,.807,3.224,8.814,8.814,0,0,0,2.294,2.639,29.108,29.108,0,0,0,4.858,2.833,21.808,21.808,0,0,1,3.323,1.907,5.351,5.351,0,0,1,1.378,1.522,3.285,3.285,0,0,1,.448,1.633,3.321,3.321,0,0,1-1.17,2.5,4.531,4.531,0,0,1-3.165,1.077,7.123,7.123,0,0,1-4.835-2.034,10.63,10.63,0,0,1-3.047-5.931l-.02-.1H99.35v9.559h.869Z" transform="translate(-7128.161 9591.861)" fill="#00963e"></path><path id="Trazado_13029" data-name="Trazado 13029" d="M88.573,35.835h-.118a5.738,5.738,0,0,1-2.247-.3,1.652,1.652,0,0,1-.817-.771,7.628,7.628,0,0,1-.234-2.47V25.574a27.863,27.863,0,0,0,5.871-.44A7.721,7.721,0,0,0,95.2,22.766a6.188,6.188,0,0,0,1.519-4.192,6.012,6.012,0,0,0-2.352-4.825c-1.555-1.273-4.142-1.919-7.692-1.919H75.808v.914h.121a5.735,5.735,0,0,1,2.254.3,1.7,1.7,0,0,1,.81.772,7.587,7.587,0,0,1,.236,2.469V32.3a7.478,7.478,0,0,1-.236,2.458,1.72,1.72,0,0,1-.8.775,5.608,5.608,0,0,1-2.263.3h-.121v.914H88.573ZM85.156,13.49h.626a4.593,4.593,0,0,1,3.493,1.237,5.63,5.63,0,0,1,1.168,3.94,5.847,5.847,0,0,1-1.169,4,4.286,4.286,0,0,1-3.329,1.28c-.179,0-.439-.01-.79-.031Z" transform="translate(-7131.677 9591.935)" fill="#00963e"></path><path id="Trazado_13030" data-name="Trazado 13030" d="M72.656,35.835h-.939a3.15,3.15,0,0,1-1.584-.339,1.743,1.743,0,0,1-.768-.774,7.683,7.683,0,0,1-.2-2.317V16.172a6.986,6.986,0,0,1,.192-2.246,1.622,1.622,0,0,1,.7-.817,3.3,3.3,0,0,1,1.665-.365h.939V11.83H59.528v.914h.938a3.161,3.161,0,0,1,1.584.337,1.713,1.713,0,0,1,.759.772A8.125,8.125,0,0,1,63,16.172V32.4a7.486,7.486,0,0,1-.191,2.248,1.546,1.546,0,0,1-.676.815,3.3,3.3,0,0,1-1.667.367h-.938v.914H72.656Z" transform="translate(-7134.108 9591.935)" fill="#00963e"></path><rect id="Rect&#xE1;ngulo_3073" data-name="Rect&#xE1;ngulo 3073" width="133.579" height="1.629" transform="translate(-7074.579 9638.225)" fill="#00963e"></rect></g></g></svg>